<svg xmlns="http://www.w3.org/2000/svg" width="870" height="505" viewBox="0 0 870 505" role="img">
<title>ShinBucketDeployment benchmark – large-few 1024 MiB</title>
<defs>
  <linearGradient id="shin" x1="0" y1="0" x2="1" y2="0"><stop offset="0" stop-color="#0ee89e"/><stop offset=".5" stop-color="#18d4f8"/><stop offset="1" stop-color="#6ef0d0"/></linearGradient>
  <linearGradient id="aws" x1="0" y1="0" x2="1" y2="0"><stop offset="0" stop-color="#e8384f"/><stop offset=".5" stop-color="#ff6a2b"/><stop offset="1" stop-color="#ffa033"/></linearGradient>
  <linearGradient id="bgGrad" x1="0" y1="0" x2="0" y2="1"><stop offset="0" stop-color="#0a1018"/><stop offset="1" stop-color="#0e1620"/></linearGradient>
  <filter id="gS" x="-8%" y="-60%" width="116%" height="220%"><feGaussianBlur in="SourceGraphic" stdDeviation="4"/><feColorMatrix type="matrix" values="0 0 0 0 .06 0 0 0 0 .85 0 0 0 0 .7 0 0 0 .6 0"/></filter>
  <filter id="gA" x="-8%" y="-60%" width="116%" height="220%"><feGaussianBlur in="SourceGraphic" stdDeviation="3.5"/><feColorMatrix type="matrix" values="0 0 0 0 .95 0 0 0 0 .35 0 0 0 0 .15 0 0 0 .4 0"/></filter>
  <filter id="badgeShadow" x="-20%" y="-30%" width="140%" height="160%"><feDropShadow dx="0" dy="2" stdDeviation="3" flood-color="#000" flood-opacity=".4"/></filter>
</defs>
<rect width="870" height="505" fill="url(#bgGrad)"/>
<text x="24" y="26" font-family="Inter, -apple-system, sans-serif" font-size="18" font-weight="800" fill="#f0f8ff" letter-spacing="-0.3">ShinBucketDeployment</text>
<text x="24" y="46" font-family="Inter, -apple-system, sans-serif" font-size="12" font-weight="500" fill="#5a7a94">vs AWS BucketDeployment · 1024 MiB · large-few · 32 objects · 137.5 MiB</text>
<rect x="670" y="12" width="12" height="8" rx="2" fill="url(#shin)"/>
<text x="688" y="20" font-family="Inter, -apple-system, sans-serif" font-size="10" font-weight="700" fill="#8ab8d0">SHIN</text>
<rect x="740" y="12" width="12" height="8" rx="2" fill="url(#aws)"/>
<text x="758" y="20" font-family="Inter, -apple-system, sans-serif" font-size="10" font-weight="700" fill="#8ab8d0">AWS</text>
<text x="670" y="42" font-family="Inter, -apple-system, sans-serif" font-size="10" font-weight="500" fill="#3d5a70">▼ lower is better</text>
<rect x="0" y="59" width="870" height="1" fill="#1a2a38"/>
<rect y="60" width="870" height="22" fill="#0c1420"/>
<text x="24" y="75" font-family="Inter, -apple-system, sans-serif" font-size="10" font-weight="700" fill="#4a6a80" letter-spacing="0.8">HANDLER DURATION</text>
<text x="600" y="75" font-family="Inter, -apple-system, sans-serif" font-size="10" font-weight="700" fill="#4a6a80" letter-spacing="0.8">SHIN</text>
<text x="690" y="75" font-family="Inter, -apple-system, sans-serif" font-size="10" font-weight="700" fill="#4a6a80" letter-spacing="0.8">AWS</text>
<text x="790" y="75" font-family="Inter, -apple-system, sans-serif" font-size="10" font-weight="700" fill="#4a6a80" letter-spacing="0.8">GAIN</text>
<rect x="0" y="82" width="870" height="1" fill="#142230"/>
<text x="24" y="112" font-family="Inter, -apple-system, sans-serif" font-size="13" font-weight="600" fill="#c8e0f0">cold-create</text>
<rect x="180" y="94" width="400" height="11" rx="5.5" fill="#12202c"/>
<rect x="180" y="94" width="8.120950323974082" height="11" rx="5.5" fill="url(#shin)"/>
<rect x="180" y="111" width="400" height="11" rx="5.5" fill="#12202c"/>
<rect x="180" y="111" width="390.4967602591793" height="11" rx="5.5" fill="url(#aws)" filter="url(#gA)" opacity="0.35"/>
<rect x="180" y="111" width="390.4967602591793" height="11" rx="5.5" fill="url(#aws)" opacity="0.75"/>
<text x="600" y="112" font-family="JetBrains Mono, monospace" font-size="12" font-weight="700" fill="#6ef0d0">0.94s</text>
<text x="690" y="112" font-family="JetBrains Mono, monospace" font-size="12" font-weight="400" fill="#5a7a94">45.2s</text>
<rect x="780" y="98" width="60" height="22" rx="5" fill="#0a3028" stroke="#0ee89e" stroke-width="0.5" filter="url(#badgeShadow)"/>
<text x="810" y="113" text-anchor="middle" font-family="JetBrains Mono, monospace" font-size="11" font-weight="800" fill="#6ef0d0">48.1×</text>
<rect x="24" y="132" width="816" height="1" fill="#142230"/>
<text x="24" y="162" font-family="Inter, -apple-system, sans-serif" font-size="13" font-weight="600" fill="#c8e0f0">forced-unchanged</text>
<rect x="180" y="144" width="400" height="11" rx="5.5" fill="#12202c"/>
<rect x="180" y="144" width="4" height="11" rx="5.5" fill="url(#shin)"/>
<rect x="180" y="161" width="400" height="11" rx="5.5" fill="#12202c"/>
<rect x="180" y="161" width="387.04103671706264" height="11" rx="5.5" fill="url(#aws)" filter="url(#gA)" opacity="0.35"/>
<rect x="180" y="161" width="387.04103671706264" height="11" rx="5.5" fill="url(#aws)" opacity="0.75"/>
<text x="600" y="162" font-family="JetBrains Mono, monospace" font-size="12" font-weight="700" fill="#6ef0d0">0.2s</text>
<text x="690" y="162" font-family="JetBrains Mono, monospace" font-size="12" font-weight="400" fill="#5a7a94">44.8s</text>
<rect x="780" y="148" width="60" height="22" rx="5" fill="#12202c" filter="url(#badgeShadow)"/>
<text x="810" y="163" text-anchor="middle" font-family="JetBrains Mono, monospace" font-size="11" font-weight="800" fill="#f0f8ff">224×</text>
<rect x="24" y="182" width="816" height="1" fill="#142230"/>
<text x="24" y="212" font-family="Inter, -apple-system, sans-serif" font-size="13" font-weight="600" fill="#c8e0f0">sparse-update</text>
<rect x="180" y="194" width="400" height="11" rx="5.5" fill="#12202c"/>
<rect x="180" y="194" width="4" height="11" rx="5.5" fill="url(#shin)"/>
<rect x="180" y="211" width="400" height="11" rx="5.5" fill="#12202c"/>
<rect x="180" y="211" width="389.6328293736501" height="11" rx="5.5" fill="url(#aws)" filter="url(#gA)" opacity="0.35"/>
<rect x="180" y="211" width="389.6328293736501" height="11" rx="5.5" fill="url(#aws)" opacity="0.75"/>
<text x="600" y="212" font-family="JetBrains Mono, monospace" font-size="12" font-weight="700" fill="#6ef0d0">0.39s</text>
<text x="690" y="212" font-family="JetBrains Mono, monospace" font-size="12" font-weight="400" fill="#5a7a94">45.1s</text>
<rect x="780" y="198" width="60" height="22" rx="5" fill="#12202c" filter="url(#badgeShadow)"/>
<text x="810" y="213" text-anchor="middle" font-family="JetBrains Mono, monospace" font-size="11" font-weight="800" fill="#f0f8ff">115×</text>
<rect x="24" y="232" width="816" height="1" fill="#142230"/>
<text x="24" y="262" font-family="Inter, -apple-system, sans-serif" font-size="13" font-weight="600" fill="#c8e0f0">prune-update</text>
<rect x="180" y="244" width="400" height="11" rx="5.5" fill="#12202c"/>
<rect x="180" y="244" width="9.676025917926568" height="11" rx="5.5" fill="url(#shin)"/>
<rect x="180" y="261" width="400" height="11" rx="5.5" fill="#12202c"/>
<rect x="180" y="261" width="400" height="11" rx="5.5" fill="url(#aws)" filter="url(#gA)" opacity="0.35"/>
<rect x="180" y="261" width="400" height="11" rx="5.5" fill="url(#aws)" opacity="0.75"/>
<text x="600" y="262" font-family="JetBrains Mono, monospace" font-size="12" font-weight="700" fill="#6ef0d0">1.12s</text>
<text x="690" y="262" font-family="JetBrains Mono, monospace" font-size="12" font-weight="400" fill="#5a7a94">46.3s</text>
<rect x="780" y="248" width="60" height="22" rx="5" fill="#12202c" filter="url(#badgeShadow)"/>
<text x="810" y="263" text-anchor="middle" font-family="JetBrains Mono, monospace" font-size="11" font-weight="800" fill="#f0f8ff">41.3×</text>
<rect x="0" y="282" width="870" height="1" fill="#1a2a38"/>
<rect y="283" width="870" height="22" fill="#0c1420"/>
<text x="24" y="298" font-family="Inter, -apple-system, sans-serif" font-size="10" font-weight="700" fill="#4a6a80" letter-spacing="0.8">MAX MEMORY</text>
<text x="600" y="298" font-family="Inter, -apple-system, sans-serif" font-size="10" font-weight="700" fill="#4a6a80" letter-spacing="0.8">SHIN</text>
<text x="690" y="298" font-family="Inter, -apple-system, sans-serif" font-size="10" font-weight="700" fill="#4a6a80" letter-spacing="0.8">AWS</text>
<text x="790" y="298" font-family="Inter, -apple-system, sans-serif" font-size="10" font-weight="700" fill="#4a6a80" letter-spacing="0.8">SAVED</text>
<rect x="0" y="305" width="870" height="1" fill="#142230"/>
<text x="24" y="335" font-family="Inter, -apple-system, sans-serif" font-size="13" font-weight="600" fill="#c8e0f0">cold-create</text>
<rect x="180" y="317" width="400" height="11" rx="5.5" fill="#12202c"/>
<rect x="180" y="317" width="115.44715447154472" height="11" rx="5.5" fill="url(#shin)" filter="url(#gS)" opacity="0.5"/>
<rect x="180" y="317" width="115.44715447154472" height="11" rx="5.5" fill="url(#shin)"/>
<rect x="180" y="334" width="400" height="11" rx="5.5" fill="#12202c"/>
<rect x="180" y="334" width="394.3089430894309" height="11" rx="5.5" fill="url(#aws)" filter="url(#gA)" opacity="0.35"/>
<rect x="180" y="334" width="394.3089430894309" height="11" rx="5.5" fill="url(#aws)" opacity="0.75"/>
<text x="600" y="335" font-family="JetBrains Mono, monospace" font-size="12" font-weight="700" fill="#6ef0d0">142 MiB</text>
<text x="690" y="335" font-family="JetBrains Mono, monospace" font-size="12" font-weight="400" fill="#5a7a94">485 MiB</text>
<rect x="780" y="321" width="60" height="22" rx="5" fill="#0a3028" stroke="#0ee89e" stroke-width="0.5" filter="url(#badgeShadow)"/>
<text x="810" y="336" text-anchor="middle" font-family="JetBrains Mono, monospace" font-size="11" font-weight="800" fill="#6ef0d0">−71%</text>
<rect x="24" y="355" width="816" height="1" fill="#142230"/>
<text x="24" y="385" font-family="Inter, -apple-system, sans-serif" font-size="13" font-weight="600" fill="#c8e0f0">forced-unchanged</text>
<rect x="180" y="367" width="400" height="11" rx="5.5" fill="#12202c"/>
<rect x="180" y="367" width="112.19512195121952" height="11" rx="5.5" fill="url(#shin)" filter="url(#gS)" opacity="0.5"/>
<rect x="180" y="367" width="112.19512195121952" height="11" rx="5.5" fill="url(#shin)"/>
<rect x="180" y="384" width="400" height="11" rx="5.5" fill="#12202c"/>
<rect x="180" y="384" width="398.3739837398374" height="11" rx="5.5" fill="url(#aws)" filter="url(#gA)" opacity="0.35"/>
<rect x="180" y="384" width="398.3739837398374" height="11" rx="5.5" fill="url(#aws)" opacity="0.75"/>
<text x="600" y="385" font-family="JetBrains Mono, monospace" font-size="12" font-weight="700" fill="#6ef0d0">138 MiB</text>
<text x="690" y="385" font-family="JetBrains Mono, monospace" font-size="12" font-weight="400" fill="#5a7a94">490 MiB</text>
<rect x="780" y="371" width="60" height="22" rx="5" fill="#12202c" filter="url(#badgeShadow)"/>
<text x="810" y="386" text-anchor="middle" font-family="JetBrains Mono, monospace" font-size="11" font-weight="800" fill="#f0f8ff">−72%</text>
<rect x="24" y="405" width="816" height="1" fill="#142230"/>
<text x="24" y="435" font-family="Inter, -apple-system, sans-serif" font-size="13" font-weight="600" fill="#c8e0f0">sparse-update</text>
<rect x="180" y="417" width="400" height="11" rx="5.5" fill="#12202c"/>
<rect x="180" y="417" width="117.88617886178862" height="11" rx="5.5" fill="url(#shin)" filter="url(#gS)" opacity="0.5"/>
<rect x="180" y="417" width="117.88617886178862" height="11" rx="5.5" fill="url(#shin)"/>
<rect x="180" y="434" width="400" height="11" rx="5.5" fill="#12202c"/>
<rect x="180" y="434" width="396.7479674796748" height="11" rx="5.5" fill="url(#aws)" filter="url(#gA)" opacity="0.35"/>
<rect x="180" y="434" width="396.7479674796748" height="11" rx="5.5" fill="url(#aws)" opacity="0.75"/>
<text x="600" y="435" font-family="JetBrains Mono, monospace" font-size="12" font-weight="700" fill="#6ef0d0">145 MiB</text>
<text x="690" y="435" font-family="JetBrains Mono, monospace" font-size="12" font-weight="400" fill="#5a7a94">488 MiB</text>
<rect x="780" y="421" width="60" height="22" rx="5" fill="#12202c" filter="url(#badgeShadow)"/>
<text x="810" y="436" text-anchor="middle" font-family="JetBrains Mono, monospace" font-size="11" font-weight="800" fill="#f0f8ff">−70%</text>
<rect x="24" y="455" width="816" height="1" fill="#142230"/>
<text x="24" y="485" font-family="Inter, -apple-system, sans-serif" font-size="13" font-weight="600" fill="#c8e0f0">prune-update</text>
<rect x="180" y="467" width="400" height="11" rx="5.5" fill="#12202c"/>
<rect x="180" y="467" width="126.01626016260164" height="11" rx="5.5" fill="url(#shin)" filter="url(#gS)" opacity="0.5"/>
<rect x="180" y="467" width="126.01626016260164" height="11" rx="5.5" fill="url(#shin)"/>
<rect x="180" y="484" width="400" height="11" rx="5.5" fill="#12202c"/>
<rect x="180" y="484" width="400" height="11" rx="5.5" fill="url(#aws)" filter="url(#gA)" opacity="0.35"/>
<rect x="180" y="484" width="400" height="11" rx="5.5" fill="url(#aws)" opacity="0.75"/>
<text x="600" y="485" font-family="JetBrains Mono, monospace" font-size="12" font-weight="700" fill="#6ef0d0">155 MiB</text>
<text x="690" y="485" font-family="JetBrains Mono, monospace" font-size="12" font-weight="400" fill="#5a7a94">492 MiB</text>
<rect x="780" y="471" width="60" height="22" rx="5" fill="#12202c" filter="url(#badgeShadow)"/>
<text x="810" y="486" text-anchor="middle" font-family="JetBrains Mono, monospace" font-size="11" font-weight="800" fill="#f0f8ff">−69%</text>
</svg>