<svg xmlns="http://www.w3.org/2000/svg" width="790" height="556" viewBox="0 0 790 556" role="img" aria-labelledby="title desc">
<title id="title">ShinBucketDeployment vs AWS BucketDeployment benchmark</title>
<desc id="desc">Benchmark comparing handler duration and memory usage. Lower is better.</desc>
<defs>
  <linearGradient id="shin" x1="0" y1="0" x2="1" y2="0">
    <stop offset="0" stop-color="#0ee89e"/><stop offset="0.5" stop-color="#18d4f8"/><stop offset="1" stop-color="#6ef0d0"/>
  </linearGradient>
  <linearGradient id="aws" x1="0" y1="0" x2="1" y2="0">
    <stop offset="0" stop-color="#e8384f"/><stop offset="0.5" stop-color="#ff6a2b"/><stop offset="1" stop-color="#ffa033"/>
  </linearGradient>
  <linearGradient id="bgGrad" x1="0" y1="0" x2="0" y2="1">
    <stop offset="0" stop-color="#0a1018"/><stop offset="1" stop-color="#0e1620"/>
  </linearGradient>
  <filter id="gS" x="-8%" y="-60%" width="116%" height="220%">
    <feGaussianBlur in="SourceGraphic" stdDeviation="4"/>
    <feColorMatrix type="matrix" values="0 0 0 0 0.06 0 0 0 0 0.85 0 0 0 0 0.7 0 0 0 0.6 0"/>
  </filter>
  <filter id="gA" x="-8%" y="-60%" width="116%" height="220%">
    <feGaussianBlur in="SourceGraphic" stdDeviation="3.5"/>
    <feColorMatrix type="matrix" values="0 0 0 0 0.95 0 0 0 0 0.35 0 0 0 0 0.15 0 0 0 0.4 0"/>
  </filter>
  <filter id="badgeShadow" x="-20%" y="-30%" width="140%" height="160%">
    <feDropShadow dx="0" dy="2" stdDeviation="3" flood-color="#000" flood-opacity="0.4"/>
  </filter>
</defs>

<!-- Background -->
<rect width="790" height="556" fill="url(#bgGrad)"/>

<!-- Header -->
<text x="24" y="23" font-family="Inter, -apple-system, sans-serif" font-size="18" font-weight="800" fill="#f0f8ff" letter-spacing="-0.3">ShinBucketDeployment</text>
<text x="24" y="43" font-family="Inter, -apple-system, sans-serif" font-size="13" font-weight="600" fill="#6f91a8">vs BucketDeployment</text>
<rect x="24" y="57" width="150" height="43" rx="6" fill="#0d1924" stroke="#21394a" stroke-width="0.75"/>
<text x="34" y="73" font-family="Inter, -apple-system, sans-serif" font-size="9" font-weight="700" fill="#6f91a8" letter-spacing="0.8">PROFILE</text>
<text x="34" y="92" font-family="Inter, -apple-system, sans-serif" font-size="11" font-weight="600" fill="#b6cedc">mixed</text>
<rect x="182" y="57" width="210" height="43" rx="6" fill="#0d1924" stroke="#21394a" stroke-width="0.75"/>
<text x="192" y="73" font-family="Inter, -apple-system, sans-serif" font-size="9" font-weight="700" fill="#6f91a8" letter-spacing="0.8">ASSETS</text>
<text x="192" y="92" font-family="Inter, -apple-system, sans-serif" font-size="11" font-weight="600" fill="#b6cedc">442 objects · 50.5 MiB</text>
<rect x="400" y="57" width="360" height="43" rx="6" fill="#0d1924" stroke="#21394a" stroke-width="0.75"/>
<text x="410" y="73" font-family="Inter, -apple-system, sans-serif" font-size="9" font-weight="700" fill="#6f91a8" letter-spacing="0.8">PROVIDER LAMBDA</text>
<text x="410" y="92" font-family="Inter, -apple-system, sans-serif" font-size="11" font-weight="600" fill="#b6cedc">2048 MiB · Shin concurrency 64</text>
<rect x="546" y="11" width="12" height="8" rx="2" fill="url(#shin)"/>
<text x="564" y="19" font-family="Inter, -apple-system, sans-serif" font-size="11" font-weight="700" fill="#8ab8d0">SHIN</text>
<text x="546" y="37" font-family="JetBrains Mono, monospace" font-size="11" font-weight="600" fill="#6f91a8">SHA 20313b6</text>
<rect x="656" y="11" width="12" height="8" rx="2" fill="url(#aws)"/>
<text x="674" y="19" font-family="Inter, -apple-system, sans-serif" font-size="11" font-weight="700" fill="#8ab8d0">AWS</text>
<text x="656" y="37" font-family="JetBrains Mono, monospace" font-size="11" font-weight="600" fill="#6f91a8">CDK v2.260.0</text>
<rect x="0" y="110" width="790" height="1" fill="#1a2a38"/>

<rect y="111" width="790" height="22" fill="#0c1420"/>
<text x="24" y="126" font-family="Inter, -apple-system, sans-serif" font-size="11" font-weight="700" fill="#6f91a8" letter-spacing="0.8">HANDLER DURATION</text>
<text x="520" y="126" font-family="Inter, -apple-system, sans-serif" font-size="11" font-weight="700" fill="#6f91a8" letter-spacing="0.8">SHIN</text>
<text x="610" y="126" font-family="Inter, -apple-system, sans-serif" font-size="11" font-weight="700" fill="#6f91a8" letter-spacing="0.8">AWS</text>
<text x="710" y="126" font-family="Inter, -apple-system, sans-serif" font-size="11" font-weight="700" fill="#6f91a8" letter-spacing="0.8">FASTER</text>
<rect x="0" y="133" width="790" height="1" fill="#142230"/>
<text x="24" y="163" font-family="Inter, -apple-system, sans-serif" font-size="13" font-weight="600" fill="#d8edf8">cold-create</text>
<rect x="180" y="145" width="320" height="11" rx="5.5" fill="#12202c"/>
<rect x="180" y="145" width="44.5993031358885" height="11" rx="5.5" fill="url(#shin)" filter="url(#gS)" opacity="0.5"/>
<rect x="180" y="145" width="44.5993031358885" height="11" rx="5.5" fill="url(#shin)"/>
<rect x="180" y="162" width="320" height="11" rx="5.5" fill="#12202c"/>
<rect x="180" y="162" width="320" height="11" rx="5.5" fill="url(#aws)" filter="url(#gA)" opacity="0.35"/>
<rect x="180" y="162" width="320" height="11" rx="5.5" fill="url(#aws)" opacity="0.75"/>
<text x="520" y="163" font-family="JetBrains Mono, monospace" font-size="12" font-weight="700" fill="#6ef0d0">0.8s</text>
<text x="610" y="163" font-family="JetBrains Mono, monospace" font-size="12" font-weight="400" fill="#5a7a94">5.74s</text>
<rect x="700" y="149" width="60" height="22" rx="5" fill="#082b35" stroke="#18d4f8" stroke-width="0.5" filter="url(#badgeShadow)"/>
<text x="730" y="164" text-anchor="middle" font-family="JetBrains Mono, monospace" font-size="11" font-weight="800" fill="#6ef0d0">7.2×</text>
<rect x="24" y="183" width="736" height="1" fill="#142230"/>
<text x="24" y="213" font-family="Inter, -apple-system, sans-serif" font-size="13" font-weight="600" fill="#d8edf8">unchanged-update</text>
<rect x="180" y="195" width="320" height="11" rx="5.5" fill="#12202c"/>
<rect x="180" y="195" width="14.494773519163765" height="11" rx="5.5" fill="url(#shin)"/>
<rect x="180" y="212" width="320" height="11" rx="5.5" fill="#12202c"/>
<rect x="180" y="212" width="316.0975609756098" height="11" rx="5.5" fill="url(#aws)" filter="url(#gA)" opacity="0.35"/>
<rect x="180" y="212" width="316.0975609756098" height="11" rx="5.5" fill="url(#aws)" opacity="0.75"/>
<text x="520" y="213" font-family="JetBrains Mono, monospace" font-size="12" font-weight="700" fill="#6ef0d0">0.26s</text>
<text x="610" y="213" font-family="JetBrains Mono, monospace" font-size="12" font-weight="400" fill="#5a7a94">5.67s</text>
<rect x="700" y="199" width="60" height="22" rx="5" fill="#082b35" stroke="#18d4f8" stroke-width="0.5" filter="url(#badgeShadow)"/>
<text x="730" y="214" text-anchor="middle" font-family="JetBrains Mono, monospace" font-size="11" font-weight="800" fill="#6ef0d0">21.8×</text>
<rect x="24" y="233" width="736" height="1" fill="#142230"/>
<text x="24" y="263" font-family="Inter, -apple-system, sans-serif" font-size="13" font-weight="600" fill="#d8edf8">changed-update</text>
<rect x="180" y="245" width="320" height="11" rx="5.5" fill="#12202c"/>
<rect x="180" y="245" width="22.857142857142854" height="11" rx="5.5" fill="url(#shin)"/>
<rect x="180" y="262" width="320" height="11" rx="5.5" fill="#12202c"/>
<rect x="180" y="262" width="308.29268292682923" height="11" rx="5.5" fill="url(#aws)" filter="url(#gA)" opacity="0.35"/>
<rect x="180" y="262" width="308.29268292682923" height="11" rx="5.5" fill="url(#aws)" opacity="0.75"/>
<text x="520" y="263" font-family="JetBrains Mono, monospace" font-size="12" font-weight="700" fill="#6ef0d0">0.41s</text>
<text x="610" y="263" font-family="JetBrains Mono, monospace" font-size="12" font-weight="400" fill="#5a7a94">5.53s</text>
<rect x="700" y="249" width="60" height="22" rx="5" fill="#082b35" stroke="#18d4f8" stroke-width="0.5" filter="url(#badgeShadow)"/>
<text x="730" y="264" text-anchor="middle" font-family="JetBrains Mono, monospace" font-size="11" font-weight="800" fill="#6ef0d0">13.5×</text>
<rect x="24" y="283" width="736" height="1" fill="#142230"/>
<text x="24" y="313" font-family="Inter, -apple-system, sans-serif" font-size="13" font-weight="600" fill="#d8edf8">pruned-update</text>
<rect x="180" y="295" width="320" height="11" rx="5.5" fill="#12202c"/>
<rect x="180" y="295" width="63.554006968641104" height="11" rx="5.5" fill="url(#shin)" filter="url(#gS)" opacity="0.5"/>
<rect x="180" y="295" width="63.554006968641104" height="11" rx="5.5" fill="url(#shin)"/>
<rect x="180" y="312" width="320" height="11" rx="5.5" fill="#12202c"/>
<rect x="180" y="312" width="313.3101045296167" height="11" rx="5.5" fill="url(#aws)" filter="url(#gA)" opacity="0.35"/>
<rect x="180" y="312" width="313.3101045296167" height="11" rx="5.5" fill="url(#aws)" opacity="0.75"/>
<text x="520" y="313" font-family="JetBrains Mono, monospace" font-size="12" font-weight="700" fill="#6ef0d0">1.14s</text>
<text x="610" y="313" font-family="JetBrains Mono, monospace" font-size="12" font-weight="400" fill="#5a7a94">5.62s</text>
<rect x="700" y="299" width="60" height="22" rx="5" fill="#082b35" stroke="#18d4f8" stroke-width="0.5" filter="url(#badgeShadow)"/>
<text x="730" y="314" text-anchor="middle" font-family="JetBrains Mono, monospace" font-size="11" font-weight="800" fill="#6ef0d0">4.9×</text>
<rect x="0" y="333" width="790" height="1" fill="#1a2a38"/>
<rect y="334" width="790" height="22" fill="#0c1420"/>
<text x="24" y="349" font-family="Inter, -apple-system, sans-serif" font-size="11" font-weight="700" fill="#6f91a8" letter-spacing="0.8">MAX MEMORY</text>
<text x="520" y="349" font-family="Inter, -apple-system, sans-serif" font-size="11" font-weight="700" fill="#6f91a8" letter-spacing="0.8">SHIN</text>
<text x="610" y="349" font-family="Inter, -apple-system, sans-serif" font-size="11" font-weight="700" fill="#6f91a8" letter-spacing="0.8">AWS</text>
<text x="710" y="349" font-family="Inter, -apple-system, sans-serif" font-size="11" font-weight="700" fill="#6f91a8" letter-spacing="0.8">SAVED</text>
<rect x="0" y="356" width="790" height="1" fill="#142230"/>
<text x="24" y="386" font-family="Inter, -apple-system, sans-serif" font-size="13" font-weight="600" fill="#d8edf8">cold-create</text>
<rect x="180" y="368" width="320" height="11" rx="5.5" fill="#12202c"/>
<rect x="180" y="368" width="122.18181818181819" height="11" rx="5.5" fill="url(#shin)" filter="url(#gS)" opacity="0.5"/>
<rect x="180" y="368" width="122.18181818181819" height="11" rx="5.5" fill="url(#shin)"/>
<rect x="180" y="385" width="320" height="11" rx="5.5" fill="#12202c"/>
<rect x="180" y="385" width="320" height="11" rx="5.5" fill="url(#aws)" filter="url(#gA)" opacity="0.35"/>
<rect x="180" y="385" width="320" height="11" rx="5.5" fill="url(#aws)" opacity="0.75"/>
<text x="520" y="386" font-family="JetBrains Mono, monospace" font-size="12" font-weight="700" fill="#6ef0d0">105 MiB</text>
<text x="610" y="386" font-family="JetBrains Mono, monospace" font-size="12" font-weight="400" fill="#5a7a94">275 MiB</text>
<rect x="700" y="372" width="60" height="22" rx="5" fill="#082b35" stroke="#18d4f8" stroke-width="0.5" filter="url(#badgeShadow)"/>
<text x="730" y="387" text-anchor="middle" font-family="JetBrains Mono, monospace" font-size="11" font-weight="800" fill="#6ef0d0">62%</text>
<rect x="24" y="406" width="736" height="1" fill="#142230"/>
<text x="24" y="436" font-family="Inter, -apple-system, sans-serif" font-size="13" font-weight="600" fill="#d8edf8">unchanged-update</text>
<rect x="180" y="418" width="320" height="11" rx="5.5" fill="#12202c"/>
<rect x="180" y="418" width="47.709090909090904" height="11" rx="5.5" fill="url(#shin)" filter="url(#gS)" opacity="0.5"/>
<rect x="180" y="418" width="47.709090909090904" height="11" rx="5.5" fill="url(#shin)"/>
<rect x="180" y="435" width="320" height="11" rx="5.5" fill="#12202c"/>
<rect x="180" y="435" width="320" height="11" rx="5.5" fill="url(#aws)" filter="url(#gA)" opacity="0.35"/>
<rect x="180" y="435" width="320" height="11" rx="5.5" fill="url(#aws)" opacity="0.75"/>
<text x="520" y="436" font-family="JetBrains Mono, monospace" font-size="12" font-weight="700" fill="#6ef0d0">41 MiB</text>
<text x="610" y="436" font-family="JetBrains Mono, monospace" font-size="12" font-weight="400" fill="#5a7a94">275 MiB</text>
<rect x="700" y="422" width="60" height="22" rx="5" fill="#082b35" stroke="#18d4f8" stroke-width="0.5" filter="url(#badgeShadow)"/>
<text x="730" y="437" text-anchor="middle" font-family="JetBrains Mono, monospace" font-size="11" font-weight="800" fill="#6ef0d0">85%</text>
<rect x="24" y="456" width="736" height="1" fill="#142230"/>
<text x="24" y="486" font-family="Inter, -apple-system, sans-serif" font-size="13" font-weight="600" fill="#d8edf8">changed-update</text>
<rect x="180" y="468" width="320" height="11" rx="5.5" fill="#12202c"/>
<rect x="180" y="468" width="47.709090909090904" height="11" rx="5.5" fill="url(#shin)" filter="url(#gS)" opacity="0.5"/>
<rect x="180" y="468" width="47.709090909090904" height="11" rx="5.5" fill="url(#shin)"/>
<rect x="180" y="485" width="320" height="11" rx="5.5" fill="#12202c"/>
<rect x="180" y="485" width="320" height="11" rx="5.5" fill="url(#aws)" filter="url(#gA)" opacity="0.35"/>
<rect x="180" y="485" width="320" height="11" rx="5.5" fill="url(#aws)" opacity="0.75"/>
<text x="520" y="486" font-family="JetBrains Mono, monospace" font-size="12" font-weight="700" fill="#6ef0d0">41 MiB</text>
<text x="610" y="486" font-family="JetBrains Mono, monospace" font-size="12" font-weight="400" fill="#5a7a94">275 MiB</text>
<rect x="700" y="472" width="60" height="22" rx="5" fill="#082b35" stroke="#18d4f8" stroke-width="0.5" filter="url(#badgeShadow)"/>
<text x="730" y="487" text-anchor="middle" font-family="JetBrains Mono, monospace" font-size="11" font-weight="800" fill="#6ef0d0">85%</text>
<rect x="24" y="506" width="736" height="1" fill="#142230"/>
<text x="24" y="536" font-family="Inter, -apple-system, sans-serif" font-size="13" font-weight="600" fill="#d8edf8">pruned-update</text>
<rect x="180" y="518" width="320" height="11" rx="5.5" fill="#12202c"/>
<rect x="180" y="518" width="44.21818181818182" height="11" rx="5.5" fill="url(#shin)" filter="url(#gS)" opacity="0.5"/>
<rect x="180" y="518" width="44.21818181818182" height="11" rx="5.5" fill="url(#shin)"/>
<rect x="180" y="535" width="320" height="11" rx="5.5" fill="#12202c"/>
<rect x="180" y="535" width="311.8545454545454" height="11" rx="5.5" fill="url(#aws)" filter="url(#gA)" opacity="0.35"/>
<rect x="180" y="535" width="311.8545454545454" height="11" rx="5.5" fill="url(#aws)" opacity="0.75"/>
<text x="520" y="536" font-family="JetBrains Mono, monospace" font-size="12" font-weight="700" fill="#6ef0d0">38 MiB</text>
<text x="610" y="536" font-family="JetBrains Mono, monospace" font-size="12" font-weight="400" fill="#5a7a94">268 MiB</text>
<rect x="700" y="522" width="60" height="22" rx="5" fill="#082b35" stroke="#18d4f8" stroke-width="0.5" filter="url(#badgeShadow)"/>
<text x="730" y="537" text-anchor="middle" font-family="JetBrains Mono, monospace" font-size="11" font-weight="800" fill="#6ef0d0">86%</text>
</svg>